# xmcd CD database file
#
# Track frame offsets:
#	151
#	11340
#	20342
#	31607
#	45618
#	49207
#	63123
#	76905
#
# Disc length: 1335 seconds
#
# Revision: 0
# Processed by: cddbd v1.5.1PL0 Copyright (c) Steve Scherf et al.
# Submitted via: CDex 1.51
#
DISCID=4e053508
DTITLE=Sharp Chuckies - Dancin' With Danger
DYEAR=1994
DGENRE=Salsa
TTITLE0=movin' guy
TTITLE1=other bats
TTITLE2=children's song
TTITLE3=don't touch my hair
TTITLE4=the jb melody
TTITLE5=traveling song
TTITLE6=beer guy
TTITLE7=mariah carey adn whitney houston are lesbian co-captains on my space ship of love
EXTD=YEAR: 1994
EXTT0=
EXTT1=
EXTT2=
EXTT3=
EXTT4=
EXTT5=
EXTT6=
EXTT7=
PLAYORDER=
